<svg id="bébé" xmlns="http://www.w3.org/2000/svg" width="26" height="24" viewBox="0 0 26 24">
  <path id="Vector" d="M0,0H26V24H0Z" fill="none"/>
  <path id="Vector-2" data-name="Vector" d="M11.917,0V8h8.667C20.583,3.58,16.7,0,11.917,0Zm6.847,13.89A7.568,7.568,0,0,0,20.583,9H4.81L3.781,7H0V9H2.4s2.048,4.07,2.3,4.42A3.462,3.462,0,0,0,2.708,16.5,3.659,3.659,0,0,0,6.5,20a3.7,3.7,0,0,0,3.748-3H12.5a3.7,3.7,0,0,0,3.748,3,3.659,3.659,0,0,0,3.792-3.5A3.377,3.377,0,0,0,18.763,13.89ZM6.5,18a1.5,1.5,0,1,1,0-3,1.5,1.5,0,1,1,0,3Zm9.75,0a1.5,1.5,0,1,1,1.625-1.5A1.564,1.564,0,0,1,16.25,18Z" transform="translate(2.167 2)" fill="#fe8f61"/>
</svg>
