<svg id="voiture" xmlns="http://www.w3.org/2000/svg" width="25" height="24" viewBox="0 0 25 24">
  <path id="Vector" d="M16.583,1.01A1.553,1.553,0,0,0,15.1,0H3.646A1.563,1.563,0,0,0,2.167,1.01L0,7v8a1.024,1.024,0,0,0,1.042,1H2.083a1.024,1.024,0,0,0,1.042-1V14h12.5v1a1.024,1.024,0,0,0,1.042,1h1.042a1.024,1.024,0,0,0,1.042-1V7ZM3.646,11a1.5,1.5,0,1,1,0-3,1.5,1.5,0,1,1,0,3ZM15.1,11a1.5,1.5,0,1,1,1.562-1.5A1.53,1.53,0,0,1,15.1,11ZM2.083,6,3.646,1.5H15.1L16.667,6Z" transform="translate(3.125 5)" fill="#9b60ff"/>
  <path id="Vector-2" data-name="Vector" d="M0,0H25V24H0Z" fill="none"/>
</svg>
